{"title":"Bugs Bunny's 3rd Movie 1001 Rabbit Tales (1982) 1080P WEB-DL","uid":10801978,"size":2766456151,"categoryP":"video","categoryS":"hd___movies","magnet":"?xt=urn:btih:67ac54060e247f5db7d7347723624ed7e1a8c10d&amp;dn=Bugs+Bunny%27s+3rd+Movie+1001+Rabbit+Tales+%281982%29+1080P+WEB-DL&amp;tr=udp%3A%2F%2Ftracker.openbittorrent.com%3A80&amp;tr=udp%3A%2F%2Fopen.demonii.com%3A1337&amp;tr=udp%3A%2F%2Ftracker.coppersurfer.tk%3A6969&amp;tr=udp%3A%2F%2Fexodus.desync.com%3A6969","seeders":3,"leechers":5,"uploader":"jmanwf","files":-1,"time":1408359654,"description":"Storyline\n\nBugs Bunny and Daffy Duck are rival book salesmen from Rambling House. They each go their separate ways to sell books to folks, Daffy finds himself encountering Elmer Fudd and Porky Pig. Bugs gets forced by Sultan Yosemite Sam to tell stories to his spoiled-brat son, Prince Abba-Dabba. The stories are shown through clips of old Warner Bros. Looney Tunes and Merrie Melodies.\n\n\nFormat : MPEG-4\nFormat profile : Base Media / Version 2\nCodec ID : mp42\nFile size : 2.58 GiB\nDuration : 1h 13mn\nOverall bit rate mode : Variable\nOverall bit rate : 5 004 Kbps\nMovie name : Bugs Bunny's 1001 Rabbit Tales\nPerformer : Friz Freleng\n\nVideo\nID : 2\nFormat : AVC\nFormat/Info : Advanced Video Codec\nFormat profile : &lt;a class=&quot;__cf_email__&quot; href=&quot;/cdn-cgi/l/email-protection&quot; data-cfemail=&quot;4901202e2109057d6779&quot;&gt;[email&amp;#160;protected]&lt;/a&gt;&lt;script cf-hash='f9e31' type=&quot;text/javascript&quot;&gt;\n/* &lt;![CDATA[ */!function(){try{var t=&quot;currentScript&quot;in document?document.currentScript:function(){for(var t=document.getElementsByTagName(&quot;script&quot;),e=t.length;e--;)if(t[e].getAttribute(&quot;cf-hash&quot;))return t[e]}();if(t&amp;&amp;t.previousSibling){var e,r,n,i,c=t.previousSibling,a=c.getAttribute(&quot;data-cfemail&quot;);if(a){for(e=&quot;&quot;,r=parseInt(a.substr(0,2),16),n=2;a.length-n;n+=2)i=parseInt(a.substr(n,2),16)^r,e+=String.fromCharCode(i);e=document.createTextNode(e),c.parentNode.replaceChild(e,c)}}}catch(u){}}();/* ]]&gt; */&lt;/script&gt;\nFormat settings, CABAC : Yes\nFormat settings, ReFrames : 5 frames\nCodec ID : avc1\nCodec ID/Info : Advanced Video Coding\nDuration : 1h 13mn\nBit rate : 4 882 Kbps\nWidth : 1 468 pixels\nHeight : 1 074 pixels\nDisplay aspect ratio : 4:3\nFrame rate : 23.976 fps\nColor space : YUV\nChroma subsampling : 4:2:0\nBit depth : 8 bits\nScan type : Progressive\nBits/(Pixel*Frame) : 0.129\nStream size : 2.51 GiB (98%)\nLanguage : English\nEncoded date : UTC 2014-08-17 04:58:55\nTagged date : UTC 2014-08-17 05:01:00\nColor primaries : BT.709\nTransfer characteristics : BT.709\nMatrix coefficients : BT.709\n\nAudio\nID : 1\nFormat : AAC\nFormat/Info : Advanced Audio Codec\nFormat profile : LC\nCodec ID : 40\nDuration : 1h 13mn\nBit rate mode : Variable\nBit rate : 117 Kbps\nMaximum bit rate : 138 Kbps\nChannel(s) : 2 channels\nChannel positions : Front: L R\nSampling rate : 48.0 KHz\nCompression mode : Lossy\nStream size : 61.8 MiB (2%)\nLanguage : English\nEncoded date : UTC 2014-08-17 04:54:29\nTagged date : UTC 2014-08-17 04:58:54\n\n\n &lt;a href=&quot;\nhttp://www.imdb.com/title/tt0083701/&quot; rel=&quot;nofollow&quot; target=&quot;_NEW&quot;&gt;\nhttp://www.imdb.com/title/tt0083701/&lt;/a&gt;","torrent":{"xt":"urn:btih:67ac54060e247f5db7d7347723624ed7e1a8c10d","amp;dn":"Bugs+Bunny%27s+3rd+Movie+1001+Rabbit+Tales+%281982%29+1080P+WEB-DL","amp;tr":["udp%3A%2F%2Ftracker.openbittorrent.com%3A80","udp%3A%2F%2Fopen.demonii.com%3A1337","udp%3A%2F%2Ftracker.coppersurfer.tk%3A6969","udp%3A%2F%2Fexodus.desync.com%3A6969"],"infoHash":"67ac54060e247f5db7d7347723624ed7e1a8c10d","infoHashBuffer":{"type":"Buffer","data":[103,172,84,6,14,36,127,93,183,215,52,119,35,98,78,215,225,168,193,13]},"announce":[],"urlList":[]}}